<svg 
    t="1611042764659" 
    class="icon" 
    viewBox="0 0 1024 1024" version="1.1" 
    xmlns="http://www.w3.org/2000/svg" 
    p-id="10325" 
    data-spm-anchor-id="a313x.7781069.0.i6" 
    xmlns:xlink="http://www.w3.org/1999/xlink" 
    width="200" height="200">
    <path 
        d="M778.97447 155.944951A443.446746 443.446746 0 0 0 505.622897 66.948466C268.469567 70.239215 73.510955 262.272717 66.929456 499.426047a445.055556 445.055556 0 0 0 33.492515 182.819404 33.346259 33.346259 0 0 1-61.719831 25.448461A511.455564 511.455564 0 0 1 0.017554 508.786401C1.845748 226.87888 240.169123-5.228635 521.85726 0.182819a509.846753 509.846753 0 0 1 301.578889 105.596488v-72.396484a33.346259 33.346259 0 1 1 66.765646 0v155.908388a33.273131 33.273131 0 0 1-33.273132 33.346259H701.020276a33.346259 33.346259 0 1 1 0-66.765646h77.954194z m-534.198298 712.264397a443.739257 443.739257 0 0 0 273.278445 88.996486c240.151569-3.290749 436.353353-200.077555 438.985952-440.229124a447.395645 447.395645 0 0 0-21.353307-141.502219 33.565643 33.565643 0 0 1 12.43172-37.953308 33.492515 33.492515 0 0 1 51.043177 17.185024 512.625608 512.625608 0 0 1 24.497801 145.670501c6.288987 281.907521-225.014122 520.889045-506.921643 523.594772a510.212392 510.212392 0 0 1-316.423824-105.742743v72.396484a33.346259 33.346259 0 0 1-36.417625 33.200004 34.29692 34.29692 0 0 1-30.348021-34.589432v-154.51896a33.200004 33.200004 0 0 1 33.273131-33.346259h155.981515a33.346259 33.346259 0 1 1 0 66.765646H244.776172z" p-id="10326" fill="#1296db">
    </path>
</svg>